<?xml version="1.0" standalone="no"?>
<!DOCTYPE svg PUBLIC "-//W3C//DTD SVG 20010904//EN"
 "http://www.w3.org/TR/2001/REC-SVG-20010904/DTD/svg10.dtd">
<svg version="1.0" xmlns="http://www.w3.org/2000/svg"
 width="313.000000pt" height="313.000000pt" viewBox="0 0 313.000000 313.000000"
 preserveAspectRatio="xMidYMid meet">

<g transform="translate(0.000000,313.000000) scale(0.100000,-0.100000)"
fill="#000000" stroke="none">
<path d="M327 2338 c11 -18 246 -428 523 -911 276 -482 504 -876 505 -875 1 2
34 58 73 125 l71 123 -369 643 c-203 354 -372 651 -376 660 -6 16 16 17 291
17 273 0 297 -1 291 -17 -4 -9 -51 -94 -106 -189 -55 -95 -100 -177 -100 -183
0 -13 133 -241 141 -241 3 0 105 172 225 382 121 211 234 409 252 440 l33 58
-736 0 -737 0 19 -32z"/>
<path d="M1937 2363 c-3 -5 -136 -237 -296 -516 l-291 -508 227 -395 c124
-217 227 -393 229 -392 2 3 649 1131 665 1161 9 16 -4 17 -219 17 l-228 0 -71
-125 -72 -125 81 0 c72 0 79 -2 74 -17 -20 -52 -230 -403 -236 -396 -5 4 -43
67 -84 140 l-76 132 222 388 223 388 163 3 c89 1 162 0 162 -3 0 -3 -29 -57
-65 -119 -36 -62 -65 -116 -65 -120 0 -3 64 -6 143 -6 l142 1 142 249 142 250
-454 0 c-250 0 -456 -3 -458 -7z"/>
</g>
</svg>
